<svg version="1.1" viewBox="0 0 360 360" xmlns="http://www.w3.org/2000/svg" xmlns:xlink="http://www.w3.org/1999/xlink">
 <defs>
  <filter id="ac" x="-.07" y="-.13" width="1.14" height="1.25" color-interpolation-filters="sRGB">
   <feGaussianBlur stdDeviation="2.03"/>
  </filter>
  <filter id="af" x="-.07" y="-.13" width="1.14" height="1.25" color-interpolation-filters="sRGB">
   <feGaussianBlur stdDeviation="2.03"/>
  </filter>
  <filter id="ab" x="-.55" y="-.24" width="2.1" height="1.49" color-interpolation-filters="sRGB">
   <feGaussianBlur stdDeviation="3.03"/>
  </filter>
  <filter id="ae" x="-.55" y="-.24" width="2.1" height="1.49" color-interpolation-filters="sRGB">
   <feGaussianBlur stdDeviation="3.03"/>
  </filter>
  <linearGradient id="i" x1="174" x2="90" y1="215.9" y2="215.9" gradientUnits="userSpaceOnUse">
   <stop stop-color="#c0ff00" offset="0"/>
   <stop stop-color="#c0ff00" stop-opacity="0" offset="1"/>
  </linearGradient>
  <filter id="f" y="-.79" height="2.58" color-interpolation-filters="sRGB">
   <feGaussianBlur stdDeviation="5.1"/>
  </filter>
  <filter id="aa" x="-.17" y="-.08" width="1.33" height="1.16" color-interpolation-filters="sRGB">
   <feGaussianBlur stdDeviation=".56"/>
  </filter>
  <filter id="ad" x="-.17" y="-.08" width="1.33" height="1.16" color-interpolation-filters="sRGB">
   <feGaussianBlur stdDeviation=".56"/>
  </filter>
  <filter id="b" x="-.01" y="-.01" width="1.01" height="1.01" color-interpolation-filters="sRGB">
   <feGaussianBlur stdDeviation=".66"/>
  </filter>
  <clipPath id="am">
   <path class="powerclip" d="M52.8-2.1h254.29v314.7H52.78zm55.02 167.6c-7.47-.02-8.15 6.5-6.86 13 .65 3.24 4.8 8.86 10.26 12.84 4.68 3.4 11.46 4.82 19.26 5.9 9.74 1.26 15.6 1.5 19.03.9 6.84-1.33 16.7-10.71 9.2-13.26-17.4-5.92-27.5-11.45-49.21-19.3-.56-.05-1.08-.08-1.58-.08zm144.4 0c-.5 0-1.02.03-1.58.09-21.7 7.84-31.85 13.37-49.3 19.3-7.5 2.45 2.35 11.82 9.19 13.17 3.41.58 9.3.35 19.03-.9 7.8-1.1 14.58-2.5 19.26-5.92 5.45-3.98 9.6-9.6 10.26-12.86 1.3-6.5.6-13-6.86-13zM173.66 220c-.82-.21-3.97 3.88-3.55 6.82.1.53 1.56 1.2 3.2.85 1.7-2.35.45-7.67.45-7.67zm12.75 0s-1.3 5.32.42 7.67c1.67.36 3.13-.32 3.13-.84.42-2.94-2.73-7.04-3.55-6.83z" fill="#fff"/>
  </clipPath>
 </defs>
 <defs>
  <linearGradient id="w" x1="177.7" x2="85" y1="206.5" y2="206.5" gradientUnits="userSpaceOnUse">
   <stop stop-color="#c0ff00" offset="0"/>
   <stop stop-color="#c0ff00" stop-opacity="0" offset="1"/>
  </linearGradient>
  <linearGradient id="ah" x1="178" x2="79.95" y1="220.4" y2="220.4" gradientUnits="userSpaceOnUse">
   <stop stop-color="#c0ff00" offset="0"/>
   <stop stop-color="#c0ff00" stop-opacity="0" offset="1"/>
  </linearGradient>
  <linearGradient id="s" x1="178" x2="124" y1="265.7" y2="265.7" gradientUnits="userSpaceOnUse">
   <stop stop-color="#c0ff00" offset="0"/>
   <stop stop-color="#c0ff00" stop-opacity="0" offset="1"/>
  </linearGradient>
  <linearGradient id="h" x1="178" x2="107" y1="249.4" y2="249.4" gradientUnits="userSpaceOnUse">
   <stop stop-color="#c0ff00" offset="0"/>
   <stop stop-color="#c0ff00" stop-opacity="0" offset="1"/>
  </linearGradient>
  <linearGradient id="ai" x1="178" x2="115" y1="232.5" y2="232.5" gradientUnits="userSpaceOnUse">
   <stop stop-color="#c0ff00" offset="0"/>
   <stop stop-color="#c0ff00" stop-opacity="0" offset="1"/>
  </linearGradient>
  <linearGradient id="r" x1="178" x2="100" y1="232.7" y2="232.7" gradientUnits="userSpaceOnUse">
   <stop stop-color="#c0ff00" offset="0"/>
   <stop stop-color="#c0ff00" stop-opacity="0" offset="1"/>
  </linearGradient>
  <linearGradient id="t" x1="178" x2="95" y1="223.7" y2="223.7" gradientUnits="userSpaceOnUse">
   <stop stop-color="#c0ff00" offset="0"/>
   <stop stop-color="#c0ff00" stop-opacity="0" offset="1"/>
  </linearGradient>
  <linearGradient id="u" x1="178" x2="84" y1="220.2" y2="220.2" gradientUnits="userSpaceOnUse">
   <stop stop-color="#c0ff00" offset="0"/>
   <stop stop-color="#c0ff00" stop-opacity="0" offset="1"/>
  </linearGradient>
  <linearGradient id="o" x1="143" x2="105" y1="210.9" y2="210.9" gradientUnits="userSpaceOnUse">
   <stop stop-color="#c0ff00" offset="0"/>
   <stop stop-color="#c0ff00" stop-opacity="0" offset="1"/>
  </linearGradient>
  <linearGradient id="v" x1="180" x2="74" y1="193.1" y2="193.1" gradientUnits="userSpaceOnUse">
   <stop stop-color="#c0ff00" offset="0"/>
   <stop stop-color="#c0ff00" stop-opacity="0" offset="1"/>
  </linearGradient>
  <linearGradient id="j" x1="138" x2="88" y1="197.4" y2="197.4" gradientUnits="userSpaceOnUse">
   <stop stop-color="#c0ff00" offset="0"/>
   <stop stop-color="#c0ff00" stop-opacity="0" offset="1"/>
  </linearGradient>
  <linearGradient id="k" x1="166" x2="190" y1="197.4" y2="197.4" gradientUnits="userSpaceOnUse">
   <stop stop-color="#c0ff00" offset="0"/>
   <stop stop-color="#c0ff00" stop-opacity="0" offset="1"/>
  </linearGradient>
  <linearGradient id="p" x1="140" x2="72" y1="187.9" y2="187.9" gradientUnits="userSpaceOnUse">
   <stop stop-color="#c0ff00" offset="0"/>
   <stop stop-color="#c0ff00" stop-opacity="0" offset="1"/>
  </linearGradient>
  <linearGradient id="l" x1="165" x2="185" y1="193.2" y2="193.2" gradientUnits="userSpaceOnUse">
   <stop stop-color="#c0ff00" offset="0"/>
   <stop stop-color="#c0ff00" stop-opacity="0" offset="1"/>
  </linearGradient>
  <linearGradient id="n" x1="140" x2="185" y1="187.7" y2="187.7" gradientUnits="userSpaceOnUse">
   <stop stop-color="#c0ff00" offset="0"/>
   <stop stop-color="#c0ff00" stop-opacity="0" offset="1"/>
  </linearGradient>
  <linearGradient id="m" x1="121" x2="78" y1="184.1" y2="184.1" gradientUnits="userSpaceOnUse">
   <stop stop-color="#c0ff00" offset="0"/>
   <stop stop-color="#c0ff00" stop-opacity="0" offset="1"/>
  </linearGradient>
  <linearGradient id="q" x1="150" x2="187" y1="184.4" y2="184.4" gradientUnits="userSpaceOnUse">
   <stop stop-color="#c0ff00" offset="0"/>
   <stop stop-color="#c0ff00" stop-opacity="0" offset="1"/>
  </linearGradient>
  <linearGradient id="y" x1="130" x2="180" y1="169.5" y2="169.5" gradientUnits="userSpaceOnUse">
   <stop stop-color="#c0ff00" offset="0"/>
   <stop stop-color="#c0ff00" stop-opacity="0" offset="1"/>
  </linearGradient>
  <linearGradient id="x" x1="112" x2="66" y1="165.1" y2="165.1" gradientUnits="userSpaceOnUse">
   <stop stop-color="#c0ff00" offset="0"/>
   <stop stop-color="#c0ff00" stop-opacity="0" offset="1"/>
  </linearGradient>
  <linearGradient id="aj" x1="178" x2="81" y1="148.3" y2="148.3" gradientUnits="userSpaceOnUse">
   <stop stop-color="#c0ff00" offset="0"/>
   <stop stop-color="#c0ff00" stop-opacity="0" offset="1"/>
  </linearGradient>
  <linearGradient id="z" x1="106" x2="71" y1="183.4" y2="183.4" gradientUnits="userSpaceOnUse">
   <stop stop-color="#c0ff00" offset="0"/>
   <stop stop-color="#c0ff00" stop-opacity="0" offset="1"/>
  </linearGradient>
  <filter id="g" x="-.29" y="-.45" width="1.59" height="1.91" color-interpolation-filters="sRGB">
   <feGaussianBlur stdDeviation="4.43"/>
  </filter>
  <filter id="e" x="-.13" y="-.55" width="1.26" height="2.09" color-interpolation-filters="sRGB">
   <feGaussianBlur stdDeviation="4.21"/>
  </filter>
  <filter id="d" x="-.13" y="-.65" width="1.26" height="2.3" color-interpolation-filters="sRGB">
   <feGaussianBlur stdDeviation="2.89"/>
  </filter>
  <filter id="c" y="-.13" width="1.21" height="1.27" color-interpolation-filters="sRGB">
   <feGaussianBlur stdDeviation="8.79"/>
  </filter>
 </defs>
 <path d="M21.02 300.5v53.82H86.5c3-2.17 5.87-4.62 6.33-11V314.9c0-5.95-.67-11.91-8.33-14.4zm55.6 6.58c3.5.66 6.34 2.2 6.92 6.95v29.18c-.54 4.2-2.75 6.16-6.54 6.62H31.38v-42.5zm30.18-6.58v7.37h10.45v-7.37zm0 11.86v41.96h10.45v-41.96zm30.5 1.44c-6.62 4.83-7.62 11-8.82 17.19v12.53c1.74 4.29 3.28 9.57 5.62 10.78h45.16l2.2-5.16v-5.83l-9.6.54-.76 2.87c1.2 2.63-1.67 3.3-4.2 4.17h-21.7c-2.95-1-5.29-3.2-6.7-7.81v-4.62h42.96v-10.1c0-6.73-3.66-11.15-8.28-14.64zm7.78 6.16h20.06c2.75 0 6.7 5.08 6.7 6.83v4.29H138.5v-3.62c0-3.13 4.5-7.29 6.57-7.29zm83.32 16.74h8.78v9.57c0 3.38-1.75 8.04-4.37 8.04h-30.18c-2.66-1.7-3.2-4.04-3.74-6.37v-26.9h-8.7v-8.77h8.57v-8.5H209v8.7h27.43v8.45H209v25.6c.42 2.2 1.62 3.13 3.41 3.3h11.45c3.5-.42 4.33-2.55 4.96-4.84zm21.3-36.2v53.82h9.9V335.5h42.1c8.22 0 15.1-2.08 16.05-10.12v-18.73c-.96-3.54-3.08-5.54-6.16-6.16h-57.15zm9.9 6.16h42.89c4.7.54 5.5 3.75 5.5 7.16v7.24c.4 5.54-3.88 4.96-6.96 5.87H259.6zm68.9-6.16v7.37h10.45v-7.37zm0 11.86v42h10.45v-42z" fill="#0e1400"/>
 <g clip-path="url(#am)">
  <path d="m127.5 4.5c-1.33 0-2.66 0.63-3.75 1.87-6.4-3.03-10.57-2.08-13.45 1.17-5.95-1.12-8.03 0.75-9.5 3.04-6.27-1.12-10.73 0.42-14.23 3.58-7.99 0-11.49 3.62-9.32 12.36-3.41 4.83-2.12 8.37 0.46 11.61-0.75 3.91-1.09 7.66 2.91 10.07 0.67 4.54 0.54 9.62 4.62 11.6 0.96 5.3 2.87 9.7 7.54 11.37 2.33 4.91 5.07 9.03 9.82 9.03 1.62 3.92 5.62 6.62 10.45 8.7-13.24 8.33-26.06 17.07-26.47 47.12-9.5 7.16-19.73 17.73-21.31 31.84-1.67 14.11-0.87 23.7 11.36 37.13a243 243 0 0 0 6.04 20.7c2.87 21.68 15.53 32.8 31.6 40.08a86.35 86.35 0 0 0 30.04 17.07 53.12 53.12 0 0 0 35.72 16.32 52.96 52.96 0 0 0 35.67-16.32 85.83 85.83 0 0 0 30.05-17.07c16.1-7.28 28.76-18.4 31.64-40.1a298.6 298.6 0 0 0 6.03-20.68c12.24-13.45 13.03-23.02 11.36-37.13s-11.9-24.68-21.35-31.84c-0.46-30.05-13.24-38.8-26.47-47.12 4.87-2.08 8.83-4.78 10.5-8.7 4.74 0 7.48-4.12 9.77-9.03 4.75-1.66 6.62-6.08 7.62-11.36 4.08-2 3.87-7.08 4.62-11.6 3.96-2.42 3.62-6.17 2.87-10.08 2.54-3.25 3.83-6.78 0.42-11.6 2.2-8.75-1.29-12.37-9.32-12.37-3.46-3.16-7.95-4.7-14.24-3.58-1.42-2.3-3.54-4.16-9.45-3.04-2.87-3.25-7.08-4.2-13.45-1.16a5.04 5.04 0 0 0-3.75-1.88c-2.41 0-5.08 1.04-7.82 2.54-3.2-1.66-6.62-0.83-10.36 1.5-5.96-1.4-8.79 1.92-12.11 4.58-10.45 1.25-16.94 15.48-22.23 28-5.3-12.52-11.78-26.76-22.27-28-3.3-2.66-6.16-6-12.11-4.58-3.75-2.33-7.16-3.16-10.36-1.5-2.8-1.5-5.47-2.66-7.89-2.54z" fill="#c0ff00" filter="url(#b)" stroke="#c0ff00" stroke-width="3.2"/>
  <path d="m127.5 4.5c-1.33 0-2.66 0.63-3.75 1.87-6.4-3.03-10.57-2.08-13.45 1.17-5.95-1.12-8.03 0.75-9.5 3.04-6.27-1.12-10.73 0.42-14.23 3.58-7.99 0-11.49 3.62-9.32 12.36-3.41 4.83-2.12 8.37 0.46 11.61-0.75 3.91-1.09 7.66 2.91 10.07 0.67 4.54 0.54 9.62 4.62 11.6 0.96 5.3 2.87 9.7 7.54 11.37 2.33 4.91 5.07 9.03 9.82 9.03 1.62 3.92 5.62 6.62 10.45 8.7-13.24 8.33-26.06 17.07-26.47 47.12-9.5 7.16-19.73 17.73-21.31 31.84-1.67 14.11-0.87 23.7 11.36 37.13a243 243 0 0 0 6.04 20.7c2.87 21.68 15.53 32.8 31.6 40.08a86.35 86.35 0 0 0 30.04 17.07 53.12 53.12 0 0 0 35.72 16.32 52.96 52.96 0 0 0 35.67-16.32 85.83 85.83 0 0 0 30.05-17.07c16.1-7.28 28.76-18.4 31.64-40.1a298.6 298.6 0 0 0 6.03-20.68c12.24-13.45 13.03-23.02 11.36-37.13s-11.9-24.68-21.35-31.84c-0.46-30.05-13.24-38.8-26.47-47.12 4.87-2.08 8.83-4.78 10.5-8.7 4.74 0 7.48-4.12 9.77-9.03 4.75-1.66 6.62-6.08 7.62-11.36 4.08-2 3.87-7.08 4.62-11.6 3.96-2.42 3.62-6.17 2.87-10.08 2.54-3.25 3.83-6.78 0.42-11.6 2.2-8.75-1.29-12.37-9.32-12.37-3.46-3.16-7.95-4.7-14.24-3.58-1.42-2.3-3.54-4.16-9.45-3.04-2.87-3.25-7.08-4.2-13.45-1.16a5.04 5.04 0 0 0-3.75-1.88c-2.41 0-5.08 1.04-7.82 2.54-3.2-1.66-6.62-0.83-10.36 1.5-5.96-1.4-8.79 1.92-12.11 4.58-10.45 1.25-16.94 15.48-22.23 28-5.3-12.52-11.78-26.76-22.27-28-3.3-2.66-6.16-6-12.11-4.58-3.75-2.33-7.16-3.16-10.36-1.5-2.8-1.5-5.47-2.66-7.89-2.54z" fill="#0e1400" stroke="#c0ff00"/>
  <g fill="#c0ff00">
   <path d="m166.4 129.9c-12.74 0-23.69 0.42-43.46 2.66-20.4 2.96-41.1 21.85-43.46 38.96-1.5 12.4-0.58 20.7 10.03 32.5 1.5 5.31 2.95 11.25 5.33 18.03 2.37 19.2 13.6 28.97 27.5 35.17 8.25 7.08 17.12 12.1 26.6 15.07 7.67 8.29 18.9 13.6 31.02 14.2a46.92 46.92 0 0 0 31.34-14.2c9.16-2.95 18.02-8 26.3-15.07 14.2-6.2 25.1-15.98 27.77-35.17 2.08-6.78 3.87-12.74 5.03-18.02 10.95-11.82 11.53-20.1 10.03-32.5-2.33-17.12-23.02-36.02-43.42-38.97-26.6-3.24-36.96-2.66-57.07-2.66z" filter="url(#c)" opacity=".05"/>
   <path d="m205.8 253h-52.37l13.1 5.33 13.08 5.33 13.08-5.33z" filter="url(#d)" opacity=".06"/>
   <path d="m140.6 165.9 26.88 18.5h25.1l27-18.5z" filter="url(#e)" opacity=".05"/>
   <path d="m241.9 145.2h-124l30.89-7.74 30.98-7.74 31.1 7.74z" filter="url(#f)" opacity=".05"/>
   <path d="m198 184.5h-36.13l18.07-23.48 9.03 11.74z" filter="url(#g)" opacity=".1"/>
  </g>
  <path id="al" d="m107.4 31.64c18.86 9.82 36.8 20.98 51.99 36.17-5.01 14.82-18.63 18.6-35.02 18.86l0.45-5.16c-3.58 0.96-7.9 0.62-12.7-0.54l2.33-4.12a36.67 36.67 0 0 1-13.1-4.5l3.6-1.96c-3.7-2.04-7.35-4-11.55-7.66 1.54-0.41 3.12-0.54 4.54-1.2-3.1-2.17-5.98-3.83-9.97-8.45 1.87 0 3.66 0 5.08-0.8a38.16 38.16 0 0 1-8.5-9.28c1.97 0 3.9 0.7 5.84-0.83a59.6 59.6 0 0 1-8.5-9.36c2.46 0 5.04 0.58 7.08-0.42-1.58-2.96-2.91-5.16-5.5-11.16h13.2l-3.03-3.29c4.87-0.66 9.7-0.42 14.6 1.62v-4.46c3.46 0 7.46 1.08 10.92 2.25 0-1.38-0.46-3.25-0.96-5.04a53 53 0 0 1 11.1 4.75c1.18-2.54 0.9-3.42 1-4.8a24.38 24.38 0 0 1 8.04 6.75c2.17-1.82 1.5-3.62 1.6-5.42 2.82 1.6 6.52 4.5 8.3 8l1.43-6.07c3.9 3.13 6.62 6.3 9.36 9.51l2.33-3.75c6.55 6.74 10.92 14.53 12.18 23.85 0 12.36-4.92 14.03-8.91 17.52-24.02-18.6-39.54-23.06-57.15-30.93z" fill="#c0ff00"/>
  <g id="ag" fill="none">
   <path d="m180.1 249.4h-70.72" opacity=".12" stroke="url(#h)" stroke-width="1.26"/>
   <path d="m87.62 211.4h77.13l9.16 9.16" opacity=".11" stroke="url(#i)" stroke-width="1.1"/>
   <path d="m140.6 197.4h-49.8" opacity=".36" stroke="url(#j)" stroke-width="1.33"/>
   <path d="m140.6 197.4h39.46" opacity=".26" stroke="url(#k)" stroke-width="1.33"/>
   <path d="m151.7 193.2h28.35" opacity=".66" stroke="url(#l)" stroke-width="1.23"/>
   <path d="m123.1 187.7h-33.34l-7.37-7.45" opacity=".33" stroke="url(#m)" stroke-width="1.43"/>
   <path d="m132.3 187.7h47.79" opacity=".8" stroke="url(#n)" stroke-width="1.43"/>
   <path d="m145.1 215.2h-28.06l-9.07-8.74" opacity=".21" stroke="url(#o)" stroke-width="1.16"/>
   <path d="m142.5 197.4h-35.92l-19.1-19.06h-13.34" opacity=".39" stroke="url(#p)" stroke-width="1.1"/>
   <path d="m180.1 184.4h-42.83" opacity=".71" stroke="url(#q)" stroke-width="1.1"/>
   <path d="m180.1 232.7h-77.92" opacity=".07" stroke="url(#r)" stroke-width="1.33"/>
   <path d="m180.1 265.7h-53.28" opacity=".09" stroke="url(#s)" stroke-width="1.1"/>
   <path d="m180.1 223.7h-82.5" opacity=".12" stroke="url(#t)" stroke-width="1.37"/>
   <path d="m180.1 220.2h-93.16" opacity=".11" stroke="url(#u)" stroke-width="1.45"/>
   <path d="m69.22 179.7h20.78l26.77 26.77h63.27" opacity=".1" stroke="url(#v)" stroke-width="1.1"/>
   <path d="m87.37 206.5h92.7" opacity=".28" stroke="url(#w)" stroke-width="1.1"/>
   <path d="m114.2 169.3-8.37-8.28h-37.76" opacity=".29" stroke="url(#x)" stroke-width="1.2"/>
   <path d="m180.1 169.5h-63.73" opacity=".3" stroke="url(#y)" stroke-width="1.23"/>
   <path d="m109.1 183.4h-35.28" opacity=".52" stroke="url(#z)"/>
   <path d="m180.1 155.8h-49.12l-15.07-15.07h-32.38" opacity=".08" stroke="url(#aj)" stroke-width="1.1"/>
   <path d="m180.1 240.4h-45.75l-16.07-16.07" opacity=".11" stroke="url(#ai)" stroke-width="1.29"/>
   <path d="m82.8 211.4 17.9 17.77h79.37" opacity=".25" stroke="url(#ah)" stroke-width="1.1"/>
  </g>
  <use transform="matrix(-1,0,0,1,360.1,0)" width="100%" height="100%" xlink:href="#ag"/>
  <g fill="#c0ff00">
   <path d="m98.43 176.3c-0.68-0.73 1.24 9.7 10.99 17.44 5.62 3.58 13.84 5 22.59 6.54 8.26 1.45 16.07 1.13 20.67-0.45 6.54-1.62 21.1-12.17 10.94-15.96-20.44-7.53-32.18-14.9-57.9-21.2-5.33-1.32-9.7 3.5-7.29 13.62z" filter="url(#af)"/>
   <path d="m175.7 203.5c-2.37-0.67-3.66 10.57-11.32 26.22-0.67 1.33 6.7-0.83 10.53 3.66 3.79-6.37 3.12-29.26 0.8-29.89z" filter="url(#ae)"/>
   <path d="m175.1 212.7c-1.62-0.46-7.83 8.4-7 14.76 0 1.14 2.88 2.6 6.17 1.83 3.37-5.1 0.83-16.6 0.83-16.6z" filter="url(#ad)"/>
   <path d="m261.6 176.3c0.68-0.73-1.24 9.7-10.99 17.44-5.62 3.58-13.84 5-22.59 6.54-8.26 1.45-16.07 1.13-20.67-0.45-6.53-1.62-21.1-12.17-10.94-15.96 20.44-7.53 32.18-14.9 57.9-21.2 5.33-1.32 9.7 3.5 7.3 13.62z" filter="url(#ac)"/>
   <path d="m184.3 203.5c2.37-0.67 3.66 10.57 11.32 26.22 0.67 1.33-6.7-0.83-10.53 3.66-3.79-6.37-3.12-29.26-0.8-29.89z" filter="url(#ab)"/>
   <path d="m184.9 212.7c1.62-0.46 7.83 8.4 7 14.76 0 1.14-2.88 2.6-6.17 1.83-3.37-5.1-0.83-16.6-0.83-16.6z" filter="url(#aa)"/>
  </g>
  <use transform="matrix(-1 0 0 1 360.1 -.08)" width="100%" height="100%" xlink:href="#al"/>
 </g>
 <g fill="none" stroke="#c0ff00">
  <path d="m186.4 220s-1.3 5.32 0.42 7.67c1.67 0.36 3.13-0.32 3.13-0.84 0.42-2.94-2.73-7.04-3.55-6.83z"/>
  <path d="m173.7 220c-0.82-0.21-3.97 3.88-3.55 6.82 0.1 0.53 1.56 1.2 3.2 0.85 1.7-2.35 0.45-7.67 0.45-7.67z"/>
  <path d="m252.2 165.5c-0.5 0-1.02 0.03-1.58 0.09-21.7 7.84-31.85 13.37-49.3 19.3-7.5 2.45 2.35 11.82 9.19 13.17 3.41 0.58 9.3 0.35 19.03-0.9 7.8-1.1 14.58-2.5 19.26-5.92 5.45-3.98 9.6-9.6 10.26-12.86 1.3-6.5 0.6-13-6.86-13z"/>
  <path d="m107.8 165.5c-7.47-0.02-8.15 6.5-6.86 13 0.65 3.24 4.8 8.86 10.26 12.84 4.68 3.4 11.46 4.82 19.26 5.9 9.74 1.26 15.6 1.5 19.03 0.9 6.84-1.33 16.7-10.71 9.2-13.26-17.4-5.92-27.5-11.45-49.21-19.3-0.56-0.05-1.08-0.08-1.58-0.08z"/>
 </g>
</svg>
